<svg xmlns="http://www.w3.org/2000/svg" viewBox="0 0 100 100">
    <switch>
        <g>
            <path d="M94.8 40.8L84.2 39c-.6-1.9-1.4-3.7-2.3-5.5l6.2-8.7c.9-1.3.8-3.1-.3-4.2l-8.5-8.5c-1.1-1.1-2.9-1.3-4.2-.3L66.4 18c-1.7-.9-3.6-1.7-5.5-2.3L59.2 5.2c-.3-1.6-1.6-2.7-3.2-2.7H44c-1.6 0-2.9 1.1-3.2 2.7L39 15.8c-1.9.6-3.7 1.4-5.5 2.3l-8.7-6.2c-1.3-.9-3.1-.8-4.2.3l-8.5 8.5c-1.1 1.1-1.3 2.9-.3 4.2l6.2 8.7c-.9 1.7-1.7 3.6-2.3 5.5L5.2 40.8c-1.6.3-2.7 1.6-2.7 3.2v12c0 1.6 1.1 2.9 2.7 3.2L15.8 61c.6 1.9 1.4 3.7 2.3 5.5l-6.2 8.7c-.9 1.3-.8 3.1.3 4.2l8.5 8.5c1.1 1.1 2.9 1.3 4.2.3l8.7-6.2c1.7.9 3.6 1.7 5.5 2.3l1.8 10.6c.3 1.6 1.6 2.7 3.2 2.7h12c1.6 0 2.9-1.1 3.2-2.7L61 84.2c1.9-.6 3.7-1.4 5.5-2.3l8.7 6.2c1.3.9 3.1.8 4.2-.3l8.5-8.5c1.1-1.1 1.3-2.9.3-4.2L82 66.4c.9-1.7 1.7-3.6 2.3-5.5l10.6-1.8c1.6-.3 2.7-1.6 2.7-3.2V44c-.1-1.6-1.2-2.9-2.8-3.2zM50 67.1c-9.5 0-17.1-7.7-17.1-17.1 0-9.5 7.7-17.1 17.1-17.1S67.1 40.5 67.1 50c0 9.5-7.6 17.1-17.1 17.1z"/>
        </g>
    </switch>
</svg>